<svg width="479.12000732421876px" height="124.439990234375px" xmlns="http://www.w3.org/2000/svg" viewBox="10.43999633789062 12.780004882812499 479.12000732421876 124.439990234375" style="background: rgba(0, 0, 0, 0) none repeat scroll 0% 0%;" preserveAspectRatio="xMidYMid"><defs><filter id="editing-raise" x="-100%" y="-100%" width="300%" height="300%"><feFlood flood-color="#ccc" result="flood-surface"></feFlood><feFlood flood-color="#777" result="flood-extrude"></feFlood><feMorphology operator="erode" in="SourceAlpha" radius="1" result="erode"></feMorphology><feConvolveMatrix in="erode" result="shadow" order="11,8" divisor="1" kernelMatrix="0 0 0 1 1 1 1 1 0 0 0 0 0 1 0 0 0 0 0 1 0 0 0 0 1 0 0 0 0 0 1 0 0 0 0 1 0 0 0 0 0 1 0 0 0 0 1 0 0 0 0 0 1 0 0 0 0 0 1 0 0 0 1 0 0 0 0 0 0 1 1 0 1 1 0 0 0 0 0 0 0 0 1 0 0 0 0 0"></feConvolveMatrix><feOffset dx="0" dy="4" in="shadow" result="offset"></feOffset><feGaussianBlur in="offset" stdDeviation="0.2" result="blur"></feGaussianBlur><feComposite operator="in" in="flood-extrude" in2="blur" result="extrude"></feComposite><feMorphology operator="erode" in="SourceAlpha" radius="1" result="erode2"></feMorphology><feConvolveMatrix in="erode2" result="out" order="4,4" divisor="1" kernelMatrix="0 1 1 0 1 0 0 1 1 0 0 1 0 1 1 0 "></feConvolveMatrix><feComposite operator="in" in="flood-surface" in2="out" result="text"></feComposite><feMerge><feMergeNode in="extrude"></feMergeNode><feMergeNode in="text"></feMergeNode></feMerge></filter></defs><g filter="url(#editing-raise)"><g transform="translate(82.35000032186508, 104.76000022888184)"><path d="M0.96-1.60L0.58-9.47L8.58-15.62L13.57-19.71L13.57-19.71Q16.13-21.89 17.98-23.81L17.98-23.81L17.98-23.81Q21.38-27.20 21.38-30.46L21.38-30.46L21.38-30.46Q21.38-32.38 20.13-33.41L20.13-33.41L20.13-33.41Q18.88-34.43 17.06-34.43L17.06-34.43L17.06-34.43Q15.23-34.43 13.92-34.02L13.92-34.02L13.92-34.02Q12.61-33.60 11.46-32.90L11.46-32.90L11.46-32.90Q9.02-31.30 7.87-28.86L7.87-28.86L7.87-28.86Q6.27-28.93 5.22-30.27L5.22-30.27L5.22-30.27Q4.16-31.62 4.16-33.57L4.16-33.57L4.16-33.57Q4.16-35.52 5.38-37.34L5.38-37.34L5.38-37.34Q6.59-39.17 8.77-40.58L8.77-40.58L8.77-40.58Q13.50-43.52 20-43.52L20-43.52L20-43.52Q26.50-43.52 30.14-40.70L30.14-40.70L30.14-40.70Q33.79-37.89 33.79-33.09L33.79-33.09L33.79-33.09Q33.79-29.50 32.03-26.24L32.03-26.24L32.03-26.24Q30.27-22.98 25.60-19.65L25.60-19.65L18.69-14.78L14.53-12.03L9.22-8.77L11.46-8.51L11.46-8.51Q12.99-8.32 15.68-8.32L15.68-8.32L15.68-8.32Q18.37-8.32 20.61-8.61L20.61-8.61L20.61-8.61Q22.85-8.90 24.77-9.47L24.77-9.47L24.77-9.47Q28.99-10.62 30.34-12.22L30.34-12.22L30.34-12.22Q31.04-11.71 31.58-10.40L31.58-10.40L31.58-10.40Q32.13-9.09 32.13-7.49L32.13-7.49L32.13-7.49Q32.13-2.69 28.48-0.70L28.48-0.70L28.48-0.70Q24.83 1.28 17.34 1.28L17.34 1.28L17.34 1.28Q13.44 1.28 8.26 0.16L8.26 0.16L8.26 0.16Q3.07-0.96 0.96-1.60L0.96-1.60ZM38.02-15.23L38.02-15.23L38.02-15.23Q38.02-28.16 44.10-35.84L44.10-35.84L44.10-35.84Q50.18-43.52 60.61-43.52L60.61-43.52L60.61-43.52Q66.18-43.52 69.38-39.36L69.38-39.36L69.38-39.36Q72.58-35.20 72.58-28.26L72.58-28.26L72.58-28.26Q72.58-21.31 71.01-15.90L71.01-15.90L71.01-15.90Q69.44-10.50 66.62-6.66L66.62-6.66L66.62-6.66Q60.74 1.34 50.94 1.34L50.94 1.34L50.94 1.34Q44.35 1.34 41.18-2.72L41.18-2.72L41.18-2.72Q38.02-6.78 38.02-15.23ZM49.34-10.88L49.34-10.88L49.34-10.88Q49.34-4.42 51.46-4.42L51.46-4.42L51.46-4.42Q53.38-4.42 55.14-6.66L55.14-6.66L55.14-6.66Q56.90-8.90 58.30-12.67L58.30-12.67L58.30-12.67Q61.31-20.93 61.31-31.17L61.31-31.17L61.31-31.17Q61.31-34.62 60.77-36.19L60.77-36.19L60.77-36.19Q60.22-37.76 58.78-37.76L58.78-37.76L58.78-37.76Q57.34-37.76 55.65-35.26L55.65-35.26L55.65-35.26Q53.95-32.77 52.54-28.86L52.54-28.86L52.54-28.86Q49.34-19.97 49.34-10.88ZM76.67-15.23L76.67-15.23L76.67-15.23Q76.67-28.16 82.75-35.84L82.75-35.84L82.75-35.84Q88.83-43.52 99.26-43.52L99.26-43.52L99.26-43.52Q104.83-43.52 108.03-39.36L108.03-39.36L108.03-39.36Q111.23-35.20 111.23-28.26L111.23-28.26L111.23-28.26Q111.23-21.31 109.66-15.90L109.66-15.90L109.66-15.90Q108.10-10.50 105.28-6.66L105.28-6.66L105.28-6.66Q99.39 1.34 89.60 1.34L89.60 1.34L89.60 1.34Q83.01 1.34 79.84-2.72L79.84-2.72L79.84-2.72Q76.67-6.78 76.67-15.23ZM88-10.88L88-10.88L88-10.88Q88-4.42 90.11-4.42L90.11-4.42L90.11-4.42Q92.03-4.42 93.79-6.66L93.79-6.66L93.79-6.66Q95.55-8.90 96.96-12.67L96.96-12.67L96.96-12.67Q99.97-20.93 99.97-31.17L99.97-31.17L99.97-31.17Q99.97-34.62 99.42-36.19L99.42-36.19L99.42-36.19Q98.88-37.76 97.44-37.76L97.44-37.76L97.44-37.76Q96-37.76 94.30-35.26L94.30-35.26L94.30-35.26Q92.61-32.77 91.20-28.86L91.20-28.86L91.20-28.86Q88-19.97 88-10.88ZM114.18-1.60L113.79-9.47L121.79-15.62L126.78-19.71L126.78-19.71Q129.34-21.89 131.20-23.81L131.20-23.81L131.20-23.81Q134.59-27.20 134.59-30.46L134.59-30.46L134.59-30.46Q134.59-32.38 133.34-33.41L133.34-33.41L133.34-33.41Q132.10-34.43 130.27-34.43L130.27-34.43L130.27-34.43Q128.45-34.43 127.14-34.02L127.14-34.02L127.14-34.02Q125.82-33.60 124.67-32.90L124.67-32.90L124.67-32.90Q122.24-31.30 121.09-28.86L121.09-28.86L121.09-28.86Q119.49-28.93 118.43-30.27L118.43-30.27L118.43-30.27Q117.38-31.62 117.38-33.57L117.38-33.57L117.38-33.57Q117.38-35.52 118.59-37.34L118.59-37.34L118.59-37.34Q119.81-39.17 121.98-40.58L121.98-40.58L121.98-40.58Q126.72-43.52 133.22-43.52L133.22-43.52L133.22-43.52Q139.71-43.52 143.36-40.70L143.36-40.70L143.36-40.70Q147.01-37.89 147.01-33.09L147.01-33.09L147.01-33.09Q147.01-29.50 145.25-26.24L145.25-26.24L145.25-26.24Q143.49-22.98 138.82-19.65L138.82-19.65L131.90-14.78L127.74-12.03L122.43-8.77L124.67-8.51L124.67-8.51Q126.21-8.32 128.90-8.32L128.90-8.32L128.90-8.32Q131.58-8.32 133.82-8.61L133.82-8.61L133.82-8.61Q136.06-8.90 137.98-9.47L137.98-9.47L137.98-9.47Q142.21-10.62 143.55-12.22L143.55-12.22L143.55-12.22Q144.26-11.71 144.80-10.40L144.80-10.40L144.80-10.40Q145.34-9.09 145.34-7.49L145.34-7.49L145.34-7.49Q145.34-2.69 141.70-0.70L141.70-0.70L141.70-0.70Q138.05 1.28 130.56 1.28L130.56 1.28L130.56 1.28Q126.66 1.28 121.47 0.16L121.47 0.16L121.47 0.16Q116.29-0.96 114.18-1.60L114.18-1.60ZM175.17-29.57L175.17-29.57L175.17-29.57Q176.13-31.49 176.13-33.28L176.13-33.28L176.13-33.28Q176.13-35.07 175.94-36.06L175.94-36.06L175.94-36.06Q175.74-37.06 175.30-37.82L175.30-37.82L175.30-37.82Q174.34-39.49 172.42-39.49L172.42-39.49L172.42-39.49Q170.05-39.49 168.13-37.76L168.13-37.76L168.13-37.76Q166.08-35.97 166.08-33.15L166.08-33.15L166.08-33.15Q166.08-31.36 167.33-29.98L167.33-29.98L167.33-29.98Q168.58-28.61 170.50-27.33L170.50-27.33L170.50-27.33Q172.42-26.05 174.59-24.77L174.59-24.77L174.59-24.77Q176.77-23.49 178.69-21.95L178.69-21.95L178.69-21.95Q183.10-18.43 183.10-13.70L183.10-13.70L183.10-13.70Q183.10-10.50 181.41-7.78L181.41-7.78L181.41-7.78Q179.71-5.06 176.90-3.07L176.90-3.07L176.90-3.07Q170.75 1.28 162.62 1.28L162.62 1.28L162.62 1.28Q156.03 1.28 152.64-0.86L152.64-0.86L152.64-0.86Q149.25-3.01 149.25-6.27L149.25-6.27L149.25-6.27Q149.25-12.10 153.79-13.57L153.79-13.57L153.79-13.57Q155.07-14.02 157.02-14.02L157.02-14.02L157.02-14.02Q158.98-14.02 161.22-13.18L161.22-13.18L161.22-13.18Q160.19-10.56 160.19-8.19L160.19-8.19L160.19-8.19Q160.19-3.07 163.84-3.07L163.84-3.07L163.84-3.07Q166.21-3.07 168.16-4.80L168.16-4.80L168.16-4.80Q170.11-6.53 170.11-8.48L170.11-8.48L170.11-8.48Q170.11-10.43 168.86-11.84L168.86-11.84L168.86-11.84Q167.62-13.25 165.76-14.37L165.76-14.37L165.76-14.37Q163.90-15.49 161.76-16.58L161.76-16.58L161.76-16.58Q159.62-17.66 157.76-19.20L157.76-19.20L157.76-19.20Q153.41-22.72 153.41-28.35L153.41-28.35L153.41-28.35Q153.41-32 155.20-34.85L155.20-34.85L155.20-34.85Q156.99-37.70 159.87-39.62L159.87-39.62L159.87-39.62Q165.63-43.52 172.70-43.52L172.70-43.52L172.70-43.52Q179.78-43.52 183.20-41.41L183.20-41.41L183.20-41.41Q186.62-39.30 186.62-35.71L186.62-35.71L186.62-35.71Q186.62-32.58 184.19-30.59L184.19-30.59L184.19-30.59Q182.08-28.93 179.52-28.93L179.52-28.93L179.52-28.93Q176.96-28.93 175.17-29.57ZM217.79-4.38L217.79-4.38L217.79-4.38Q215.10-1.66 211.42-0.19L211.42-0.19L211.42-0.19Q207.74 1.28 204.10 1.28L204.10 1.28L204.10 1.28Q200.45 1.28 199.17 0.64L199.17 0.64L197.18 11.52L184.19 12.80L193.02-32.64L203.46-33.73L202.62-29.31L202.62-29.31Q205.31-33.86 210.88-33.86L210.88-33.86L210.88-33.86Q217.15-33.86 220.48-29.82L220.48-29.82L220.48-29.82Q223.42-26.18 223.42-20.61L223.42-20.61L223.42-20.61Q223.42-15.04 221.95-11.07L221.95-11.07L221.95-11.07Q220.48-7.10 217.79-4.38ZM203.33-22.34L199.94-3.58L199.94-3.58Q201.28-2.43 202.94-2.43L202.94-2.43L202.94-2.43Q204.61-2.43 205.57-3.07L205.57-3.07L205.57-3.07Q206.53-3.71 207.23-4.99L207.23-4.99L207.23-4.99Q209.15-8.45 210.69-18.94L210.69-18.94L210.69-18.94Q211.14-22.02 211.14-25.02L211.14-25.02L211.14-25.02Q211.14-28.03 210.46-28.99L210.46-28.99L210.46-28.99Q209.79-29.95 208.51-29.95L208.51-29.95L208.51-29.95Q204.61-29.95 203.33-22.34L203.33-22.34ZM242.62-3.52L242.62-3.52L242.62-3.52Q240.64 1.28 234.30 1.28L234.30 1.28L234.30 1.28Q231.04 1.28 228.99-0.96L228.99-0.96L228.99-0.96Q227.26-2.94 227.26-4.93L227.26-4.93L227.26-4.93Q227.26-10.11 229.63-20.22L229.63-20.22L232-32.64L244.99-33.92L241.09-13.70L241.09-13.70Q240-8.96 240-7.30L240-7.30L240-7.30Q240-3.65 242.62-3.52ZM233.15-41.54L233.15-41.54L233.15-41.54Q233.15-44.03 235.23-45.38L235.23-45.38L235.23-45.38Q237.31-46.72 240.32-46.72L240.32-46.72L240.32-46.72Q243.33-46.72 245.15-45.38L245.15-45.38L245.15-45.38Q246.98-44.03 246.98-41.54L246.98-41.54L246.98-41.54Q246.98-39.04 244.96-37.76L244.96-37.76L244.96-37.76Q242.94-36.48 239.94-36.48L239.94-36.48L239.94-36.48Q236.93-36.48 235.04-37.76L235.04-37.76L235.04-37.76Q233.15-39.04 233.15-41.54ZM273.98-10.82L273.98-10.82L273.98-10.82Q275.58-9.73 275.58-7.33L275.58-7.33L275.58-7.33Q275.58-4.93 274.37-3.39L274.37-3.39L274.37-3.39Q273.15-1.86 271.17-0.83L271.17-0.83L271.17-0.83Q267.07 1.28 262.66 1.28L262.66 1.28L262.66 1.28Q258.24 1.28 255.65 0.32L255.65 0.32L255.65 0.32Q253.06-0.64 251.33-2.43L251.33-2.43L251.33-2.43Q247.94-5.82 247.94-12.03L247.94-12.03L247.94-12.03Q247.94-21.70 253.18-27.58L253.18-27.58L253.18-27.58Q258.82-33.92 268.61-33.92L268.61-33.92L268.61-33.92Q274.69-33.92 277.70-31.36L277.70-31.36L277.70-31.36Q279.94-29.44 279.94-26.30L279.94-26.30L279.94-26.30Q279.94-15.04 260.48-15.04L260.48-15.04L260.48-15.04Q260.22-13.38 260.22-11.97L260.22-11.97L260.22-11.97Q260.22-9.02 261.54-7.90L261.54-7.90L261.54-7.90Q262.85-6.78 265.28-6.78L265.28-6.78L265.28-6.78Q267.71-6.78 270.30-7.90L270.30-7.90L270.30-7.90Q272.90-9.02 273.98-10.82ZM260.93-17.79L260.93-17.79L260.93-17.79Q265.47-17.79 268.10-20.61L268.10-20.61L268.10-20.61Q270.72-23.30 270.72-27.58L270.72-27.58L270.72-27.58Q270.72-29.06 270.18-29.86L270.18-29.86L270.18-29.86Q269.63-30.66 268.54-30.66L268.54-30.66L268.54-30.66Q267.46-30.66 266.53-30.24L266.53-30.24L266.53-30.24Q265.60-29.82 264.64-28.42L264.64-28.42L264.64-28.42Q262.27-25.22 260.93-17.79ZM297.41-3.52L297.41-3.52L297.41-3.52Q295.42 1.28 289.09 1.28L289.09 1.28L289.09 1.28Q285.89 1.28 283.84-0.96L283.84-0.96L283.84-0.96Q282.18-2.82 282.18-4.93L282.18-4.93L282.18-4.93Q282.18-9.73 284.42-20.22L284.42-20.22L289.09-44.80L302.08-46.08L295.87-13.70L295.87-13.70Q294.78-8.96 294.78-7.30L294.78-7.30L294.78-7.30Q294.78-3.65 297.41-3.52ZM328.77-10.82L328.77-10.82L328.77-10.82Q330.37-9.73 330.37-7.33L330.37-7.33L330.37-7.33Q330.37-4.93 329.15-3.39L329.15-3.39L329.15-3.39Q327.94-1.86 325.95-0.83L325.95-0.83L325.95-0.83Q321.86 1.28 317.44 1.28L317.44 1.28L317.44 1.28Q313.02 1.28 310.43 0.32L310.43 0.32L310.43 0.32Q307.84-0.64 306.11-2.43L306.11-2.43L306.11-2.43Q302.72-5.82 302.72-12.03L302.72-12.03L302.72-12.03Q302.72-21.70 307.97-27.58L307.97-27.58L307.97-27.58Q313.60-33.92 323.39-33.92L323.39-33.92L323.39-33.92Q329.47-33.92 332.48-31.36L332.48-31.36L332.48-31.36Q334.72-29.44 334.72-26.30L334.72-26.30L334.72-26.30Q334.72-15.04 315.26-15.04L315.26-15.04L315.26-15.04Q315.01-13.38 315.01-11.97L315.01-11.97L315.01-11.97Q315.01-9.02 316.32-7.90L316.32-7.90L316.32-7.90Q317.63-6.78 320.06-6.78L320.06-6.78L320.06-6.78Q322.50-6.78 325.09-7.90L325.09-7.90L325.09-7.90Q327.68-9.02 328.77-10.82ZM315.71-17.79L315.71-17.79L315.71-17.79Q320.26-17.79 322.88-20.61L322.88-20.61L322.88-20.61Q325.50-23.30 325.50-27.58L325.50-27.58L325.50-27.58Q325.50-29.06 324.96-29.86L324.96-29.86L324.96-29.86Q324.42-30.66 323.33-30.66L323.33-30.66L323.33-30.66Q322.24-30.66 321.31-30.24L321.31-30.24L321.31-30.24Q320.38-29.82 319.42-28.42L319.42-28.42L319.42-28.42Q317.06-25.22 315.71-17.79Z"></path></g></g><style>text {
  font-size: 64px;
  font-family: Arial Black;
  dominant-baseline: central;
  text-anchor: middle;
}</style></svg>