<svg width="1449.6400390625px" height="339.32000732421875px" xmlns="http://www.w3.org/2000/svg" viewBox="-474.82001953124995 -94.66000366210938 1449.6400390625 339.32000732421875" style="background: rgba(0, 0, 0, 0) none repeat scroll 0% 0%;" preserveAspectRatio="xMidYMid"><defs><filter id="editing-raise" x="-100%" y="-100%" width="300%" height="300%"><feFlood flood-color="#ccc" result="flood-surface"></feFlood><feFlood flood-color="#777" result="flood-extrude"></feFlood><feMorphology operator="erode" in="SourceAlpha" radius="1" result="erode"></feMorphology><feConvolveMatrix in="erode" result="shadow" order="11,8" divisor="1" kernelMatrix="0 0 0 1 1 1 1 1 0 0 0 0 0 1 0 0 0 0 0 1 0 0 0 0 1 0 0 0 0 0 1 0 0 0 0 1 0 0 0 0 0 1 0 0 0 0 1 0 0 0 0 0 1 0 0 0 0 0 1 0 0 0 1 0 0 0 0 0 0 1 1 0 1 1 0 0 0 0 0 0 0 0 1 0 0 0 0 0"></feConvolveMatrix><feOffset dx="0" dy="4" in="shadow" result="offset"></feOffset><feGaussianBlur in="offset" stdDeviation="0.2" result="blur"></feGaussianBlur><feComposite operator="in" in="flood-extrude" in2="blur" result="extrude"></feComposite><feMorphology operator="erode" in="SourceAlpha" radius="1" result="erode2"></feMorphology><feConvolveMatrix in="erode2" result="out" order="4,4" divisor="1" kernelMatrix="0 1 1 0 1 0 0 1 1 0 0 1 0 1 1 0 "></feConvolveMatrix><feComposite operator="in" in="flood-surface" in2="out" result="text"></feComposite><feMerge><feMergeNode in="extrude"></feMergeNode><feMergeNode in="text"></feMergeNode></feMerge></filter></defs><g filter="url(#editing-raise)"><g transform="translate(-273.8999755382538, 168)"><path d="M3-5L1.80-29.60L26.80-48.80L42.40-61.60L42.40-61.60Q50.40-68.40 56.20-74.40L56.20-74.40L56.20-74.40Q66.80-85 66.80-95.20L66.80-95.20L66.80-95.20Q66.80-101.20 62.90-104.40L62.90-104.40L62.90-104.40Q59-107.60 53.30-107.60L53.30-107.60L53.30-107.60Q47.60-107.60 43.50-106.30L43.50-106.30L43.50-106.30Q39.40-105 35.80-102.80L35.80-102.80L35.80-102.80Q28.20-97.80 24.60-90.20L24.60-90.20L24.60-90.20Q19.60-90.40 16.30-94.60L16.30-94.60L16.30-94.60Q13-98.80 13-104.90L13-104.90L13-104.90Q13-111 16.80-116.70L16.80-116.70L16.80-116.70Q20.60-122.40 27.40-126.80L27.40-126.80L27.40-126.80Q42.20-136 62.50-136L62.50-136L62.50-136Q82.80-136 94.20-127.20L94.20-127.20L94.20-127.20Q105.60-118.40 105.60-103.40L105.60-103.40L105.60-103.40Q105.60-92.20 100.10-82L100.10-82L100.10-82Q94.60-71.80 80-61.40L80-61.40L58.40-46.20L45.40-37.60L28.80-27.40L35.80-26.60L35.80-26.60Q40.60-26 49-26L49-26L49-26Q57.40-26 64.40-26.90L64.40-26.90L64.40-26.90Q71.40-27.80 77.40-29.60L77.40-29.60L77.40-29.60Q90.60-33.20 94.80-38.20L94.80-38.20L94.80-38.20Q97-36.60 98.70-32.50L98.70-32.50L98.70-32.50Q100.40-28.40 100.40-23.40L100.40-23.40L100.40-23.40Q100.40-8.40 89-2.20L89-2.20L89-2.20Q77.60 4 54.20 4L54.20 4L54.20 4Q42 4 25.80 0.50L25.80 0.50L25.80 0.50Q9.60-3 3-5L3-5ZM118.80-47.60L118.80-47.60L118.80-47.60Q118.80-88 137.80-112L137.80-112L137.80-112Q156.80-136 189.40-136L189.40-136L189.40-136Q206.80-136 216.80-123L216.80-123L216.80-123Q226.80-110 226.80-88.30L226.80-88.30L226.80-88.30Q226.80-66.60 221.90-49.70L221.90-49.70L221.90-49.70Q217-32.80 208.20-20.80L208.20-20.80L208.20-20.80Q189.80 4.20 159.20 4.20L159.20 4.20L159.20 4.20Q138.60 4.20 128.70-8.50L128.70-8.50L128.70-8.50Q118.80-21.20 118.80-47.60ZM154.20-34L154.20-34L154.20-34Q154.20-13.80 160.80-13.80L160.80-13.80L160.80-13.80Q166.80-13.80 172.30-20.80L172.30-20.80L172.30-20.80Q177.80-27.80 182.20-39.60L182.20-39.60L182.20-39.60Q191.60-65.40 191.60-97.40L191.60-97.40L191.60-97.40Q191.60-108.20 189.90-113.10L189.90-113.10L189.90-113.10Q188.20-118 183.70-118L183.70-118L183.70-118Q179.20-118 173.90-110.20L173.90-110.20L173.90-110.20Q168.60-102.40 164.20-90.20L164.20-90.20L164.20-90.20Q154.20-62.40 154.20-34ZM239.60-47.60L239.60-47.60L239.60-47.60Q239.60-88 258.60-112L258.60-112L258.60-112Q277.60-136 310.20-136L310.20-136L310.20-136Q327.60-136 337.60-123L337.60-123L337.60-123Q347.60-110 347.60-88.30L347.60-88.30L347.60-88.30Q347.60-66.60 342.70-49.70L342.70-49.70L342.70-49.70Q337.80-32.80 329-20.80L329-20.80L329-20.80Q310.60 4.20 280 4.20L280 4.20L280 4.20Q259.40 4.20 249.50-8.50L249.50-8.50L249.50-8.50Q239.60-21.20 239.60-47.60ZM275-34L275-34L275-34Q275-13.80 281.60-13.80L281.60-13.80L281.60-13.80Q287.60-13.80 293.10-20.80L293.10-20.80L293.10-20.80Q298.60-27.80 303-39.60L303-39.60L303-39.60Q312.40-65.40 312.40-97.40L312.40-97.40L312.40-97.40Q312.40-108.20 310.70-113.10L310.70-113.10L310.70-113.10Q309-118 304.50-118L304.50-118L304.50-118Q300-118 294.70-110.20L294.70-110.20L294.70-110.20Q289.40-102.40 285-90.20L285-90.20L285-90.20Q275-62.40 275-34ZM356.80-5L355.60-29.60L380.60-48.80L396.20-61.60L396.20-61.60Q404.20-68.40 410-74.40L410-74.40L410-74.40Q420.60-85 420.60-95.20L420.60-95.20L420.60-95.20Q420.60-101.20 416.70-104.40L416.70-104.40L416.70-104.40Q412.80-107.60 407.10-107.60L407.10-107.60L407.10-107.60Q401.40-107.60 397.30-106.30L397.30-106.30L397.30-106.30Q393.20-105 389.60-102.80L389.60-102.80L389.60-102.80Q382-97.80 378.40-90.20L378.40-90.20L378.40-90.20Q373.40-90.40 370.10-94.60L370.10-94.60L370.10-94.60Q366.80-98.80 366.80-104.90L366.80-104.90L366.80-104.90Q366.80-111 370.60-116.70L370.60-116.70L370.60-116.70Q374.40-122.40 381.20-126.80L381.20-126.80L381.20-126.80Q396-136 416.30-136L416.30-136L416.30-136Q436.60-136 448-127.20L448-127.20L448-127.20Q459.40-118.40 459.40-103.40L459.40-103.40L459.40-103.40Q459.40-92.20 453.90-82L453.90-82L453.90-82Q448.40-71.80 433.80-61.40L433.80-61.40L412.20-46.20L399.20-37.60L382.60-27.40L389.60-26.60L389.60-26.60Q394.40-26 402.80-26L402.80-26L402.80-26Q411.20-26 418.20-26.90L418.20-26.90L418.20-26.90Q425.20-27.80 431.20-29.60L431.20-29.60L431.20-29.60Q444.40-33.20 448.60-38.20L448.60-38.20L448.60-38.20Q450.80-36.60 452.50-32.50L452.50-32.50L452.50-32.50Q454.20-28.40 454.20-23.40L454.20-23.40L454.20-23.40Q454.20-8.40 442.80-2.20L442.80-2.20L442.80-2.20Q431.40 4 408 4L408 4L408 4Q395.80 4 379.60 0.50L379.60 0.50L379.60 0.50Q363.40-3 356.80-5L356.80-5ZM547.40-92.40L547.40-92.40L547.40-92.40Q550.40-98.40 550.40-104L550.40-104L550.40-104Q550.40-109.60 549.80-112.70L549.80-112.70L549.80-112.70Q549.20-115.80 547.80-118.20L547.80-118.20L547.80-118.20Q544.80-123.40 538.80-123.40L538.80-123.40L538.80-123.40Q531.40-123.40 525.40-118L525.40-118L525.40-118Q519-112.40 519-103.60L519-103.60L519-103.60Q519-98 522.90-93.70L522.90-93.70L522.90-93.70Q526.80-89.40 532.80-85.40L532.80-85.40L532.80-85.40Q538.80-81.40 545.60-77.40L545.60-77.40L545.60-77.40Q552.40-73.40 558.40-68.60L558.40-68.60L558.40-68.60Q572.20-57.60 572.20-42.80L572.20-42.80L572.20-42.80Q572.20-32.80 566.90-24.30L566.90-24.30L566.90-24.30Q561.60-15.80 552.80-9.60L552.80-9.60L552.80-9.60Q533.60 4 508.20 4L508.20 4L508.20 4Q487.60 4 477-2.70L477-2.70L477-2.70Q466.40-9.40 466.40-19.60L466.40-19.60L466.40-19.60Q466.40-37.80 480.60-42.40L480.60-42.40L480.60-42.40Q484.60-43.80 490.70-43.80L490.70-43.80L490.70-43.80Q496.80-43.80 503.80-41.20L503.80-41.20L503.80-41.20Q500.60-33 500.60-25.60L500.60-25.60L500.60-25.60Q500.60-9.60 512-9.60L512-9.60L512-9.60Q519.40-9.60 525.50-15L525.50-15L525.50-15Q531.60-20.40 531.60-26.50L531.60-26.50L531.60-26.50Q531.60-32.60 527.70-37L527.70-37L527.70-37Q523.80-41.40 518-44.90L518-44.90L518-44.90Q512.20-48.40 505.50-51.80L505.50-51.80L505.50-51.80Q498.80-55.20 493-60L493-60L493-60Q479.40-71 479.40-88.60L479.40-88.60L479.40-88.60Q479.40-100 485-108.90L485-108.90L485-108.90Q490.60-117.80 499.60-123.80L499.60-123.80L499.60-123.80Q517.60-136 539.70-136L539.70-136L539.70-136Q561.80-136 572.50-129.40L572.50-129.40L572.50-129.40Q583.20-122.80 583.20-111.60L583.20-111.60L583.20-111.60Q583.20-101.80 575.60-95.60L575.60-95.60L575.60-95.60Q569-90.40 561-90.40L561-90.40L561-90.40Q553-90.40 547.40-92.40ZM680.60-13.70L680.60-13.70L680.60-13.70Q672.20-5.20 660.70-0.60L660.70-0.60L660.70-0.60Q649.20 4 637.80 4L637.80 4L637.80 4Q626.40 4 622.40 2L622.40 2L616.20 36L575.60 40L603.20-102L635.80-105.40L633.20-91.60L633.20-91.60Q641.60-105.80 659-105.80L659-105.80L659-105.80Q678.60-105.80 689-93.20L689-93.20L689-93.20Q698.20-81.80 698.20-64.40L698.20-64.40L698.20-64.40Q698.20-47 693.60-34.60L693.60-34.60L693.60-34.60Q689-22.20 680.60-13.70ZM635.40-69.80L624.80-11.20L624.80-11.20Q629-7.60 634.20-7.60L634.20-7.60L634.20-7.60Q639.40-7.60 642.40-9.60L642.40-9.60L642.40-9.60Q645.40-11.60 647.60-15.60L647.60-15.60L647.60-15.60Q653.60-26.40 658.40-59.20L658.40-59.20L658.40-59.20Q659.80-68.80 659.80-78.20L659.80-78.20L659.80-78.20Q659.80-87.60 657.70-90.60L657.70-90.60L657.70-90.60Q655.60-93.60 651.60-93.60L651.60-93.60L651.60-93.60Q639.40-93.60 635.40-69.80L635.40-69.80ZM758.20-11L758.20-11L758.20-11Q752 4 732.20 4L732.20 4L732.20 4Q722 4 715.60-3L715.60-3L715.60-3Q710.20-9.20 710.20-15.40L710.20-15.40L710.20-15.40Q710.20-31.60 717.60-63.20L717.60-63.20L725-102L765.60-106L753.40-42.80L753.40-42.80Q750-28 750-22.80L750-22.80L750-22.80Q750-11.40 758.20-11ZM728.60-129.80L728.60-129.80L728.60-129.80Q728.60-137.60 735.10-141.80L735.10-141.80L735.10-141.80Q741.60-146 751-146L751-146L751-146Q760.40-146 766.10-141.80L766.10-141.80L766.10-141.80Q771.80-137.60 771.80-129.80L771.80-129.80L771.80-129.80Q771.80-122 765.50-118L765.50-118L765.50-118Q759.20-114 749.80-114L749.80-114L749.80-114Q740.40-114 734.50-118L734.50-118L734.50-118Q728.60-122 728.60-129.80ZM856.20-33.80L856.20-33.80L856.20-33.80Q861.20-30.40 861.20-22.90L861.20-22.90L861.20-22.90Q861.20-15.40 857.40-10.60L857.40-10.60L857.40-10.60Q853.60-5.80 847.40-2.60L847.40-2.60L847.40-2.60Q834.60 4 820.80 4L820.80 4L820.80 4Q807 4 798.90 1L798.90 1L798.90 1Q790.80-2 785.40-7.60L785.40-7.60L785.40-7.60Q774.80-18.20 774.80-37.60L774.80-37.60L774.80-37.60Q774.80-67.80 791.20-86.20L791.20-86.20L791.20-86.20Q808.80-106 839.40-106L839.40-106L839.40-106Q858.40-106 867.80-98L867.80-98L867.80-98Q874.80-92 874.80-82.20L874.80-82.20L874.80-82.20Q874.80-47 814-47L814-47L814-47Q813.20-41.80 813.20-37.40L813.20-37.40L813.20-37.40Q813.20-28.20 817.30-24.70L817.30-24.70L817.30-24.70Q821.40-21.20 829-21.20L829-21.20L829-21.20Q836.60-21.20 844.70-24.70L844.70-24.70L844.70-24.70Q852.80-28.20 856.20-33.80ZM815.40-55.60L815.40-55.60L815.40-55.60Q829.60-55.60 837.80-64.40L837.80-64.40L837.80-64.40Q846-72.80 846-86.20L846-86.20L846-86.20Q846-90.80 844.30-93.30L844.30-93.30L844.30-93.30Q842.60-95.80 839.20-95.80L839.20-95.80L839.20-95.80Q835.80-95.80 832.90-94.50L832.90-94.50L832.90-94.50Q830-93.20 827-88.80L827-88.80L827-88.80Q819.60-78.80 815.40-55.60ZM929.40-11L929.40-11L929.40-11Q923.20 4 903.40 4L903.40 4L903.40 4Q893.40 4 887.00-3L887.00-3L887.00-3Q881.80-8.80 881.80-15.40L881.80-15.40L881.80-15.40Q881.80-30.40 888.80-63.20L888.80-63.20L903.40-140L944.00-144L924.60-42.80L924.60-42.80Q921.20-28 921.20-22.80L921.20-22.80L921.20-22.80Q921.20-11.40 929.40-11ZM1027.40-33.80L1027.40-33.80L1027.40-33.80Q1032.40-30.40 1032.40-22.90L1032.40-22.90L1032.40-22.90Q1032.40-15.40 1028.60-10.60L1028.60-10.60L1028.60-10.60Q1024.80-5.80 1018.60-2.60L1018.60-2.60L1018.60-2.60Q1005.80 4 992.00 4L992.00 4L992.00 4Q978.20 4 970.10 1L970.10 1L970.10 1Q962.00-2 956.60-7.60L956.60-7.60L956.60-7.60Q946.00-18.20 946.00-37.60L946.00-37.60L946.00-37.60Q946.00-67.80 962.40-86.20L962.40-86.20L962.40-86.20Q980.00-106 1010.60-106L1010.60-106L1010.60-106Q1029.60-106 1039-98L1039-98L1039-98Q1046-92 1046-82.20L1046-82.20L1046-82.20Q1046-47 985.20-47L985.20-47L985.20-47Q984.40-41.80 984.40-37.40L984.40-37.40L984.40-37.40Q984.40-28.20 988.50-24.70L988.50-24.70L988.50-24.70Q992.60-21.20 1000.20-21.20L1000.20-21.20L1000.20-21.20Q1007.80-21.20 1015.90-24.70L1015.90-24.70L1015.90-24.70Q1024.00-28.20 1027.40-33.80ZM986.60-55.60L986.60-55.60L986.60-55.60Q1000.80-55.60 1009.00-64.40L1009.00-64.40L1009.00-64.40Q1017.20-72.80 1017.20-86.20L1017.20-86.20L1017.20-86.20Q1017.20-90.80 1015.50-93.30L1015.50-93.30L1015.50-93.30Q1013.80-95.80 1010.40-95.80L1010.40-95.80L1010.40-95.80Q1007.00-95.80 1004.10-94.50L1004.10-94.50L1004.10-94.50Q1001.20-93.20 998.20-88.80L998.20-88.80L998.20-88.80Q990.80-78.80 986.60-55.60Z"></path></g></g><style>text {
  font-size: 64px;
  font-family: Arial Black;
  dominant-baseline: central;
  text-anchor: middle;
}</style></svg>