<svg width="1767.319970703125px" height="339.32000732421875px" xmlns="http://www.w3.org/2000/svg" viewBox="-633.6599853515625 -94.66000366210938 1767.319970703125 339.32000732421875" style="background: rgba(0, 0, 0, 0) none repeat scroll 0% 0%;" preserveAspectRatio="xMidYMid"><defs><filter id="editing-raise" x="-100%" y="-100%" width="300%" height="300%"><feFlood flood-color="#ccc" result="flood-surface"></feFlood><feFlood flood-color="#777" result="flood-extrude"></feFlood><feMorphology operator="erode" in="SourceAlpha" radius="1" result="erode"></feMorphology><feConvolveMatrix in="erode" result="shadow" order="11,8" divisor="1" kernelMatrix="0 0 0 1 1 1 1 1 0 0 0 0 0 1 0 0 0 0 0 1 0 0 0 0 1 0 0 0 0 0 1 0 0 0 0 1 0 0 0 0 0 1 0 0 0 0 1 0 0 0 0 0 1 0 0 0 0 0 1 0 0 0 1 0 0 0 0 0 0 1 1 0 1 1 0 0 0 0 0 0 0 0 1 0 0 0 0 0"></feConvolveMatrix><feOffset dx="0" dy="4" in="shadow" result="offset"></feOffset><feGaussianBlur in="offset" stdDeviation="0.2" result="blur"></feGaussianBlur><feComposite operator="in" in="flood-extrude" in2="blur" result="extrude"></feComposite><feMorphology operator="erode" in="SourceAlpha" radius="1" result="erode2"></feMorphology><feConvolveMatrix in="erode2" result="out" order="4,4" divisor="1" kernelMatrix="0 1 1 0 1 0 0 1 1 0 0 1 0 1 1 0 "></feConvolveMatrix><feComposite operator="in" in="flood-surface" in2="out" result="text"></feComposite><feMerge><feMergeNode in="extrude"></feMergeNode><feMergeNode in="text"></feMergeNode></feMerge></filter></defs><g filter="url(#editing-raise)"><g transform="translate(-389.2000000476837, 145.29999542236328)"><path d="M40.40 2.60L27.60 2.20L27.60 2.20Q21.40 2 14.90 2L14.90 2L14.90 2Q8.40 2 2 2.80L2 2.80L2 2.80Q1.20-0.40 1.20-4.20L1.20-4.20L1.20-4.20Q1.20-12.20 5.70-17L5.70-17L5.70-17Q10.20-21.80 17.20-21.80L17.20-21.80L28-21.80L44.80-97.40L44.80-97.40Q38.60-91.20 25.80-91.20L25.80-91.20L25.80-91.20Q19.40-91.20 14.40-97.20L14.40-97.20L14.40-97.20Q9.40-102.80 8.60-110.80L8.60-110.80L8.60-110.80Q38.20-116 82.40-135.80L82.40-135.80L88.80-128.20L69.40-21.80L74.40-21.80L74.40-21.80Q86.40-21.80 92.60-24L92.60-24L92.60-24Q95.20-19.60 95.20-12.40L95.20-12.40L95.20-12.40Q95.20-5.20 89.90-0.90L89.90-0.90L89.90-0.90Q84.60 3.40 75.80 3.40L75.80 3.40L75.80 3.40Q58 3.40 40.40 2.60L40.40 2.60ZM172.60-72.20L172.60-72.20L172.60-72.20Q199-65.40 199-39.60L199-39.60L199-39.60Q199-21 183.20-8.80L183.20-8.80L183.20-8.80Q166.40 4 138.80 4L138.80 4L138.80 4Q122.40 4 112.60-2.30L112.60-2.30L112.60-2.30Q102.80-8.60 102.80-19L102.80-19L102.80-19Q102.80-29.40 110.60-35.80L110.60-35.80L110.60-35.80Q114.60-28.40 121.70-25L121.70-25L121.70-25Q128.80-21.60 137.90-21.60L137.90-21.60L137.90-21.60Q147-21.60 152.80-26.40L152.80-26.40L152.80-26.40Q158.60-31.20 158.60-40.60L158.60-40.60L158.60-40.60Q158.60-58.40 134.20-58.40L134.20-58.40L137.60-76.40L137.60-76.40Q166.80-81.20 166.80-95.60L166.80-95.60L166.80-95.60Q166.80-101.40 162.80-104.60L162.80-104.60L162.80-104.60Q158.80-107.80 151.20-107.80L151.20-107.80L151.20-107.80Q137.80-107.80 126-95.40L126-95.40L126-95.40Q122.20-96.40 120.60-99.10L120.60-99.10L120.60-99.10Q119-101.80 119-107.40L119-107.40L119-107.40Q119-113 123-118.30L123-118.30L123-118.30Q127-123.60 134-127.60L134-127.60L134-127.60Q149-136 169.20-136L169.20-136L169.20-136Q184.60-136 194.40-128L194.40-128L194.40-128Q204.60-119.80 204.60-107.60L204.60-107.60L204.60-107.60Q204.60-96.60 195.80-87L195.80-87L195.80-87Q187-77.40 172.60-72.20ZM313.40-102.80L313.40-102.80L313.40-102.80Q307.40-110.60 293.20-110.60L293.20-110.60L293.20-110.60Q274.60-110.60 264.40-97.60L264.40-97.60L264.40-97.60Q257.20-88.60 254-72.40L254-72.40L254-72.40Q259.20-81 266.10-85.50L266.10-85.50L266.10-85.50Q273-90 282.60-90L282.60-90L282.60-90Q292.20-90 298.30-86.60L298.30-86.60L298.30-86.60Q304.40-83.20 308.20-77.60L308.20-77.60L308.20-77.60Q315.40-67.20 315.40-52.40L315.40-52.40L315.40-52.40Q315.40-37.60 310.10-27.20L310.10-27.20L310.10-27.20Q304.80-16.80 296.60-9.80L296.60-9.80L296.60-9.80Q288.40-2.80 278.30 0.70L278.30 0.70L278.30 0.70Q268.20 4.20 258.70 4.20L258.70 4.20L258.70 4.20Q249.20 4.20 241.40 1.10L241.40 1.10L241.40 1.10Q233.60-2 228-8.20L228-8.20L228-8.20Q215.80-21.40 215.80-45L215.80-45L215.80-45Q215.80-60.80 221.20-77L221.20-77L221.20-77Q226.60-93.20 236.40-106.40L236.40-106.40L236.40-106.40Q246.20-119.60 259.60-128L259.60-128L259.60-128Q273-136.40 288.20-136.40L288.20-136.40L288.20-136.40Q303.40-136.40 312-131.60L312-131.60L312-131.60Q320.60-126.80 320.60-118L320.60-118L320.60-118Q320.60-108.40 313.40-102.80ZM256.30-59.40L256.30-59.40L256.30-59.40Q253.60-55.20 252-49.60L252-49.60L252-49.60Q250.40-44 250.40-36.10L250.40-36.10L250.40-36.10Q250.40-28.20 253.90-23.10L253.90-23.10L253.90-23.10Q257.40-18 263-18L263-18L263-18Q268.60-18 271.90-21.90L271.90-21.90L271.90-21.90Q275.20-25.80 277-31.20L277-31.20L277-31.20Q280.20-40.80 280.20-49.60L280.20-49.60L280.20-49.60Q280.20-58.40 277.10-63.40L277.10-63.40L277.10-63.40Q274-68.40 269.80-68.40L269.80-68.40L269.80-68.40Q265.60-68.40 262.30-66L262.30-66L262.30-66Q259-63.60 256.30-59.40ZM345.80 0L322.80 0L359.00-132L400.80-132L410.00-56.60L447.20-132L482.20-132L485.80-33.20L485.80-33.20Q486.60-13.60 496.20-7.60L496.20-7.60L496.20-7.60Q494.00-3.60 487.60 0.20L487.60 0.20L487.60 0.20Q481.20 4 472.70 4L472.70 4L472.70 4Q464.20 4 459.20 1.60L459.20 1.60L459.20 1.60Q454.20-0.80 451.40-4.80L451.40-4.80L451.40-4.80Q446.40-12 446.40-25.80L446.40-25.80L446.40-87.60L407.00 0L382.20 0L368.20-89.80L345.80 0ZM513.50-6L513.50-6L513.50-6Q508.80-11.20 506.70-19.40L506.70-19.40L506.70-19.40Q504.60-27.60 504.60-41L504.60-41L504.60-41Q504.60-54.40 509.20-66.60L509.20-66.60L509.20-66.60Q513.80-78.80 522.20-87.60L522.20-87.60L522.20-87.60Q539.40-106 567.80-106L567.80-106L567.80-106Q578-106 585.40-102.60L585.40-102.60L619.60-106L604.80-28L604.80-28Q604.20-25.60 604.20-21.20L604.20-21.20L604.20-21.20Q604.20-16.80 606.90-14L606.90-14L606.90-14Q609.60-11.20 613.60-10.80L613.60-10.80L613.60-10.80Q611.60-4 604.30 0L604.30 0L604.30 0Q597 4 588.80 4L588.80 4L588.80 4Q580.60 4 575.10 0.90L575.10 0.90L575.10 0.90Q569.60-2.20 568-7.40L568-7.40L568-7.40Q564.80-2.40 558 0.80L558 0.80L558 0.80Q551.20 4 542.10 4L542.10 4L542.10 4Q533 4 525.60 1.60L525.60 1.60L525.60 1.60Q518.20-0.80 513.50-6ZM555.70-87.20L555.70-87.20L555.70-87.20Q553.40-83.60 551.40-77.50L551.40-77.50L551.40-77.50Q549.40-71.40 546.10-55.10L546.10-55.10L546.10-55.10Q542.80-38.80 542.80-27.20L542.80-27.20L542.80-27.20Q542.80-15.60 544.60-12.20L544.60-12.20L544.60-12.20Q546.40-8.80 549.60-8.80L549.60-8.80L549.60-8.80Q556-8.80 560.70-14.90L560.70-14.90L560.70-14.90Q565.40-21 567.20-31.80L567.20-31.80L577.80-90.40L577.80-90.40Q573.60-94 568.70-94L568.70-94L568.70-94Q563.80-94 560.90-92.40L560.90-92.40L560.90-92.40Q558-90.80 555.70-87.20ZM690.20-70.20L690.20-70.20L690.20-70.20Q693-77.60 693-84L693-84L693-84Q693-95.80 683.40-95.80L683.40-95.80L683.40-95.80Q678.40-95.80 674.30-91.30L674.30-91.30L674.30-91.30Q670.20-86.80 670.20-81.20L670.20-81.20L670.20-81.20Q670.20-77.20 673.40-74L673.40-74L673.40-74Q678-69.60 689.80-62.40L689.80-62.40L689.80-62.40Q701.60-55.20 706.10-49.30L706.10-49.30L706.10-49.30Q710.60-43.40 710.60-35.30L710.60-35.30L710.60-35.30Q710.60-27.20 706.70-19.80L706.70-19.80L706.70-19.80Q702.80-12.40 695.80-7.20L695.80-7.20L695.80-7.20Q680.80 4 656.80 4L656.80 4L656.80 4Q643.80 4 633.80-2.80L633.80-2.80L633.80-2.80Q623.80-9.40 623.80-17.20L623.80-17.20L623.80-17.20Q623.80-25 629.50-29.60L629.50-29.60L629.50-29.60Q635.20-34.20 643.60-34.20L643.60-34.20L643.60-34.20Q652-34.20 657.20-31L657.20-31L657.20-31Q654.60-24.40 654.60-20L654.60-20L654.60-20Q654.60-6.80 665.80-6.80L665.80-6.80L665.80-6.80Q670.60-6.80 673.80-9.80L673.80-9.80L673.80-9.80Q677-12.80 677-18L677-18L677-18Q677-28.20 659.80-39L659.80-39L659.80-39Q645.80-48.20 642.60-51.80L642.60-51.80L642.60-51.80Q637.20-58.20 637.20-66.20L637.20-66.20L637.20-66.20Q637.20-74.20 641-81.80L641-81.80L641-81.80Q644.80-89.40 651.80-94.80L651.80-94.80L651.80-94.80Q666.40-106 691.80-106L691.80-106L691.80-106Q704.80-106 712.50-100.80L712.50-100.80L712.50-100.80Q720.20-95.60 720.20-86.80L720.20-86.80L720.20-86.80Q720.20-78 714.90-73L714.90-73L714.90-73Q709.60-68 700-68L700-68L700-68Q693.40-68 690.20-70.20ZM730.80-20L730.80-20L730.80-20Q730.80-25.40 733.60-39L733.60-39L744.20-93L732.40-93L733.20-99L733.20-99Q757.20-106.20 780.40-123.80L780.40-123.80L790-123.80L785.20-102L800.80-102L799-93L783.60-93L773.40-39L773.40-39Q770.80-26.60 770.80-22.40L770.80-22.40L770.80-22.40Q770.80-12.80 779.20-10.80L779.20-10.80L779.20-10.80Q777.20-4 770 0L770 0L770 0Q762.80 4 752.60 4L752.60 4L752.60 4Q742.40 4 736.60-2.40L736.60-2.40L736.60-2.40Q730.80-8.80 730.80-20ZM880.00-33.80L880.00-33.80L880.00-33.80Q885.00-30.40 885.00-22.90L885.00-22.90L885.00-22.90Q885.00-15.40 881.20-10.60L881.20-10.60L881.20-10.60Q877.40-5.80 871.20-2.60L871.20-2.60L871.20-2.60Q858.40 4 844.60 4L844.60 4L844.60 4Q830.80 4 822.70 1L822.70 1L822.70 1Q814.60-2 809.20-7.60L809.20-7.60L809.20-7.60Q798.60-18.20 798.60-37.60L798.60-37.60L798.60-37.60Q798.60-67.80 815.00-86.20L815.00-86.20L815.00-86.20Q832.60-106 863.20-106L863.20-106L863.20-106Q882.20-106 891.60-98L891.60-98L891.60-98Q898.60-92 898.60-82.20L898.60-82.20L898.60-82.20Q898.60-47 837.80-47L837.80-47L837.80-47Q837.00-41.80 837.00-37.40L837.00-37.40L837.00-37.40Q837.00-28.20 841.10-24.70L841.10-24.70L841.10-24.70Q845.20-21.20 852.80-21.20L852.80-21.20L852.80-21.20Q860.40-21.20 868.50-24.70L868.50-24.70L868.50-24.70Q876.60-28.20 880.00-33.80ZM839.20-55.60L839.20-55.60L839.20-55.60Q853.40-55.60 861.60-64.40L861.60-64.40L861.60-64.40Q869.80-72.80 869.80-86.20L869.80-86.20L869.80-86.20Q869.80-90.80 868.10-93.30L868.10-93.30L868.10-93.30Q866.40-95.80 863.00-95.80L863.00-95.80L863.00-95.80Q859.60-95.80 856.70-94.50L856.70-94.50L856.70-94.50Q853.80-93.20 850.80-88.80L850.80-88.80L850.80-88.80Q843.40-78.80 839.20-55.60ZM968.00-56.20L968.00-56.20L968.00-56.20Q975.20-69 975.20-82L975.20-82L975.20-82Q975.20-90.60 969.00-90.60L969.00-90.60L969.00-90.60Q964.20-90.60 959.20-82.40L959.20-82.40L959.20-82.40Q954.00-74.20 952.40-63.60L952.40-63.60L942.00 0L900.60 4L921.00-102L954.00-106L950.40-85.80L950.40-85.80Q960.20-106 982.20-106L982.20-106L982.20-106Q993.80-106 1000.10-100L1000.10-100L1000.10-100Q1006.40-94 1006.40-81.70L1006.40-81.70L1006.40-81.70Q1006.40-69.40 998.30-61.60L998.30-61.60L998.30-61.60Q990.20-53.80 976.40-53.80L976.40-53.80L976.40-53.80Q970.40-53.80 968.00-56.20ZM1030.20 0L1008.20 0L1032.20-132L1075.20-132L1106.40-41.20L1123.00-132L1145.20-131.80L1120.80 0L1075.00 0L1046.20-87.40L1030.20 0ZM1191.20 0L1148.40 0L1172.80-131.40L1172.80-131.40Q1192.60-133.60 1221.50-133.60L1221.50-133.60L1221.50-133.60Q1250.40-133.60 1263.80-125.20L1263.80-125.20L1263.80-125.20Q1277.20-116.80 1277.20-99.90L1277.20-99.90L1277.20-99.90Q1277.20-83 1268.50-72.40L1268.50-72.40L1268.50-72.40Q1259.80-61.80 1244.80-58.40L1244.80-58.40L1244.80-58.40Q1248.20-41.80 1256.00-28.40L1256.00-28.40L1256.00-28.40Q1263.20-15.80 1271.60-11.80L1271.60-11.80L1271.60-11.80Q1268.60-3.40 1262.50 0.30L1262.50 0.30L1262.50 0.30Q1256.40 4 1247.70 4L1247.70 4L1247.70 4Q1239.00 4 1232.20-1.10L1232.20-1.10L1232.20-1.10Q1225.40-6.20 1220.00-15.60L1220.00-15.60L1220.00-15.60Q1208.60-36 1207.40-68.20L1207.40-68.20L1208.80-68.20L1208.80-68.20Q1223.60-68.60 1231.00-76.30L1231.00-76.30L1231.00-76.30Q1238.40-84 1238.40-100.20L1238.40-100.20L1238.40-100.20Q1238.40-120.40 1221.40-121.20L1221.40-121.20L1217.00-121.20L1217.00-121.20Q1215.20-121.20 1214.20-121L1214.20-121L1191.20 0Z"></path></g></g><style>text {
  font-size: 64px;
  font-family: Arial Black;
  dominant-baseline: central;
  text-anchor: middle;
}</style></svg>