<svg width="580.8000122070313px" height="124.439990234375px" xmlns="http://www.w3.org/2000/svg" viewBox="-40.400006103515636 12.780004882812499 580.8000122070313 124.439990234375" style="background: rgba(0, 0, 0, 0) none repeat scroll 0% 0%;" preserveAspectRatio="xMidYMid"><defs><filter id="editing-raise" x="-100%" y="-100%" width="300%" height="300%"><feFlood flood-color="#ccc" result="flood-surface"></feFlood><feFlood flood-color="#777" result="flood-extrude"></feFlood><feMorphology operator="erode" in="SourceAlpha" radius="1" result="erode"></feMorphology><feConvolveMatrix in="erode" result="shadow" order="11,8" divisor="1" kernelMatrix="0 0 0 1 1 1 1 1 0 0 0 0 0 1 0 0 0 0 0 1 0 0 0 0 1 0 0 0 0 0 1 0 0 0 0 1 0 0 0 0 0 1 0 0 0 0 1 0 0 0 0 0 1 0 0 0 0 0 1 0 0 0 1 0 0 0 0 0 0 1 1 0 1 1 0 0 0 0 0 0 0 0 1 0 0 0 0 0"></feConvolveMatrix><feOffset dx="0" dy="4" in="shadow" result="offset"></feOffset><feGaussianBlur in="offset" stdDeviation="0.2" result="blur"></feGaussianBlur><feComposite operator="in" in="flood-extrude" in2="blur" result="extrude"></feComposite><feMorphology operator="erode" in="SourceAlpha" radius="1" result="erode2"></feMorphology><feConvolveMatrix in="erode2" result="out" order="4,4" divisor="1" kernelMatrix="0 1 1 0 1 0 0 1 1 0 0 1 0 1 1 0 "></feConvolveMatrix><feComposite operator="in" in="flood-surface" in2="out" result="text"></feComposite><feMerge><feMergeNode in="extrude"></feMergeNode><feMergeNode in="text"></feMergeNode></feMerge></filter></defs><g filter="url(#editing-raise)"><g transform="translate(45.4599848985672, 97.4950008392334)"><path d="M12.93 0.83L8.83 0.70L8.83 0.70Q6.85 0.64 4.77 0.64L4.77 0.64L4.77 0.64Q2.69 0.64 0.64 0.90L0.64 0.90L0.64 0.90Q0.38-0.13 0.38-1.34L0.38-1.34L0.38-1.34Q0.38-3.90 1.82-5.44L1.82-5.44L1.82-5.44Q3.26-6.98 5.50-6.98L5.50-6.98L8.96-6.98L14.34-31.17L14.34-31.17Q12.35-29.18 8.26-29.18L8.26-29.18L8.26-29.18Q6.21-29.18 4.61-31.10L4.61-31.10L4.61-31.10Q3.01-32.90 2.75-35.46L2.75-35.46L2.75-35.46Q12.22-37.12 26.37-43.46L26.37-43.46L28.42-41.02L22.21-6.98L23.81-6.98L23.81-6.98Q27.65-6.98 29.63-7.68L29.63-7.68L29.63-7.68Q30.46-6.27 30.46-3.97L30.46-3.97L30.46-3.97Q30.46-1.66 28.77-0.29L28.77-0.29L28.77-0.29Q27.07 1.09 24.26 1.09L24.26 1.09L24.26 1.09Q18.56 1.09 12.93 0.83L12.93 0.83ZM55.23-23.10L55.23-23.10L55.23-23.10Q63.68-20.93 63.68-12.67L63.68-12.67L63.68-12.67Q63.68-6.72 58.62-2.82L58.62-2.82L58.62-2.82Q53.25 1.28 44.42 1.28L44.42 1.28L44.42 1.28Q39.17 1.28 36.03-0.74L36.03-0.74L36.03-0.74Q32.90-2.75 32.90-6.08L32.90-6.08L32.90-6.08Q32.90-9.41 35.39-11.46L35.39-11.46L35.39-11.46Q36.67-9.09 38.94-8L38.94-8L38.94-8Q41.22-6.91 44.13-6.91L44.13-6.91L44.13-6.91Q47.04-6.91 48.90-8.45L48.90-8.45L48.90-8.45Q50.75-9.98 50.75-12.99L50.75-12.99L50.75-12.99Q50.75-18.69 42.94-18.69L42.94-18.69L44.03-24.45L44.03-24.45Q53.38-25.98 53.38-30.59L53.38-30.59L53.38-30.59Q53.38-32.45 52.10-33.47L52.10-33.47L52.10-33.47Q50.82-34.50 48.38-34.50L48.38-34.50L48.38-34.50Q44.10-34.50 40.32-30.53L40.32-30.53L40.32-30.53Q39.10-30.85 38.59-31.71L38.59-31.71L38.59-31.71Q38.08-32.58 38.08-34.37L38.08-34.37L38.08-34.37Q38.08-36.16 39.36-37.86L39.36-37.86L39.36-37.86Q40.64-39.55 42.88-40.83L42.88-40.83L42.88-40.83Q47.68-43.52 54.14-43.52L54.14-43.52L54.14-43.52Q59.07-43.52 62.21-40.96L62.21-40.96L62.21-40.96Q65.47-38.34 65.47-34.43L65.47-34.43L65.47-34.43Q65.47-30.91 62.66-27.84L62.66-27.84L62.66-27.84Q59.84-24.77 55.23-23.10ZM100.29-32.90L100.29-32.90L100.29-32.90Q98.37-35.39 93.82-35.39L93.82-35.39L93.82-35.39Q87.87-35.39 84.61-31.23L84.61-31.23L84.61-31.23Q82.30-28.35 81.28-23.17L81.28-23.17L81.28-23.17Q82.94-25.92 85.15-27.36L85.15-27.36L85.15-27.36Q87.36-28.80 90.43-28.80L90.43-28.80L90.43-28.80Q93.50-28.80 95.46-27.71L95.46-27.71L95.46-27.71Q97.41-26.62 98.62-24.83L98.62-24.83L98.62-24.83Q100.93-21.50 100.93-16.77L100.93-16.77L100.93-16.77Q100.93-12.03 99.23-8.70L99.23-8.70L99.23-8.70Q97.54-5.38 94.91-3.14L94.91-3.14L94.91-3.14Q92.29-0.90 89.06 0.22L89.06 0.22L89.06 0.22Q85.82 1.34 82.78 1.34L82.78 1.34L82.78 1.34Q79.74 1.34 77.25 0.35L77.25 0.35L77.25 0.35Q74.75-0.64 72.96-2.62L72.96-2.62L72.96-2.62Q69.06-6.85 69.06-14.40L69.06-14.40L69.06-14.40Q69.06-19.46 70.78-24.64L70.78-24.64L70.78-24.64Q72.51-29.82 75.65-34.05L75.65-34.05L75.65-34.05Q78.78-38.27 83.07-40.96L83.07-40.96L83.07-40.96Q87.36-43.65 92.22-43.65L92.22-43.65L92.22-43.65Q97.09-43.65 99.84-42.11L99.84-42.11L99.84-42.11Q102.59-40.58 102.59-37.76L102.59-37.76L102.59-37.76Q102.59-34.69 100.29-32.90ZM82.02-19.01L82.02-19.01L82.02-19.01Q81.15-17.66 80.64-15.87L80.64-15.87L80.64-15.87Q80.13-14.08 80.13-11.55L80.13-11.55L80.13-11.55Q80.13-9.02 81.25-7.39L81.25-7.39L81.25-7.39Q82.37-5.76 84.16-5.76L84.16-5.76L84.16-5.76Q85.95-5.76 87.01-7.01L87.01-7.01L87.01-7.01Q88.06-8.26 88.64-9.98L88.64-9.98L88.64-9.98Q89.66-13.06 89.66-15.87L89.66-15.87L89.66-15.87Q89.66-18.69 88.67-20.29L88.67-20.29L88.67-20.29Q87.68-21.89 86.34-21.89L86.34-21.89L86.34-21.89Q84.99-21.89 83.94-21.12L83.94-21.12L83.94-21.12Q82.88-20.35 82.02-19.01ZM110.66 0L103.30 0L114.88-42.24L128.26-42.24L131.20-18.11L143.10-42.24L154.30-42.24L155.46-10.62L155.46-10.62Q155.71-4.35 158.78-2.43L158.78-2.43L158.78-2.43Q158.08-1.15 156.03 0.06L156.03 0.06L156.03 0.06Q153.98 1.28 151.26 1.28L151.26 1.28L151.26 1.28Q148.54 1.28 146.94 0.51L146.94 0.51L146.94 0.51Q145.34-0.26 144.45-1.54L144.45-1.54L144.45-1.54Q142.85-3.84 142.85-8.26L142.85-8.26L142.85-28.03L130.24 0L122.30 0L117.82-28.74L110.66 0ZM164.32-1.92L164.32-1.92L164.32-1.92Q162.82-3.58 162.14-6.21L162.14-6.21L162.14-6.21Q161.47-8.83 161.47-13.12L161.47-13.12L161.47-13.12Q161.47-17.41 162.94-21.31L162.94-21.31L162.94-21.31Q164.42-25.22 167.10-28.03L167.10-28.03L167.10-28.03Q172.61-33.92 181.70-33.92L181.70-33.92L181.70-33.92Q184.96-33.92 187.33-32.83L187.33-32.83L198.27-33.92L193.54-8.96L193.54-8.96Q193.34-8.19 193.34-6.78L193.34-6.78L193.34-6.78Q193.34-5.38 194.21-4.48L194.21-4.48L194.21-4.48Q195.07-3.58 196.35-3.46L196.35-3.46L196.35-3.46Q195.71-1.28 193.38 0L193.38 0L193.38 0Q191.04 1.28 188.42 1.28L188.42 1.28L188.42 1.28Q185.79 1.28 184.03 0.29L184.03 0.29L184.03 0.29Q182.27-0.70 181.76-2.37L181.76-2.37L181.76-2.37Q180.74-0.77 178.56 0.26L178.56 0.26L178.56 0.26Q176.38 1.28 173.47 1.28L173.47 1.28L173.47 1.28Q170.56 1.28 168.19 0.51L168.19 0.51L168.19 0.51Q165.82-0.26 164.32-1.92ZM177.82-27.90L177.82-27.90L177.82-27.90Q177.09-26.75 176.45-24.80L176.45-24.80L176.45-24.80Q175.81-22.85 174.75-17.63L174.75-17.63L174.75-17.63Q173.70-12.42 173.70-8.70L173.70-8.70L173.70-8.70Q173.70-4.99 174.27-3.90L174.27-3.90L174.27-3.90Q174.85-2.82 175.87-2.82L175.87-2.82L175.87-2.82Q177.92-2.82 179.42-4.77L179.42-4.77L179.42-4.77Q180.93-6.72 181.50-10.18L181.50-10.18L184.90-28.93L184.90-28.93Q183.55-30.08 181.98-30.08L181.98-30.08L181.98-30.08Q180.42-30.08 179.49-29.57L179.49-29.57L179.49-29.57Q178.56-29.06 177.82-27.90ZM220.86-22.46L220.86-22.46L220.86-22.46Q221.76-24.83 221.76-26.88L221.76-26.88L221.76-26.88Q221.76-30.66 218.69-30.66L218.69-30.66L218.69-30.66Q217.09-30.66 215.78-29.22L215.78-29.22L215.78-29.22Q214.46-27.78 214.46-25.98L214.46-25.98L214.46-25.98Q214.46-24.70 215.49-23.68L215.49-23.68L215.49-23.68Q216.96-22.27 220.74-19.97L220.74-19.97L220.74-19.97Q224.51-17.66 225.95-15.78L225.95-15.78L225.95-15.78Q227.39-13.89 227.39-11.30L227.39-11.30L227.39-11.30Q227.39-8.70 226.14-6.34L226.14-6.34L226.14-6.34Q224.90-3.97 222.66-2.30L222.66-2.30L222.66-2.30Q217.86 1.28 210.18 1.28L210.18 1.28L210.18 1.28Q206.02 1.28 202.82-0.90L202.82-0.90L202.82-0.90Q199.62-3.01 199.62-5.50L199.62-5.50L199.62-5.50Q199.62-8 201.44-9.47L201.44-9.47L201.44-9.47Q203.26-10.94 205.95-10.94L205.95-10.94L205.95-10.94Q208.64-10.94 210.30-9.92L210.30-9.92L210.30-9.92Q209.47-7.81 209.47-6.40L209.47-6.40L209.47-6.40Q209.47-2.18 213.06-2.18L213.06-2.18L213.06-2.18Q214.59-2.18 215.62-3.14L215.62-3.14L215.62-3.14Q216.64-4.10 216.64-5.76L216.64-5.76L216.64-5.76Q216.64-9.02 211.14-12.48L211.14-12.48L211.14-12.48Q206.66-15.42 205.63-16.58L205.63-16.58L205.63-16.58Q203.90-18.62 203.90-21.18L203.90-21.18L203.90-21.18Q203.90-23.74 205.12-26.18L205.12-26.18L205.12-26.18Q206.34-28.61 208.58-30.34L208.58-30.34L208.58-30.34Q213.25-33.92 221.38-33.92L221.38-33.92L221.38-33.92Q225.54-33.92 228-32.26L228-32.26L228-32.26Q230.46-30.59 230.46-27.78L230.46-27.78L230.46-27.78Q230.46-24.96 228.77-23.36L228.77-23.36L228.77-23.36Q227.07-21.76 224-21.76L224-21.76L224-21.76Q221.89-21.76 220.86-22.46ZM233.86-6.40L233.86-6.40L233.86-6.40Q233.86-8.13 234.75-12.48L234.75-12.48L238.14-29.76L234.37-29.76L234.62-31.68L234.62-31.68Q242.30-33.98 249.73-39.62L249.73-39.62L252.80-39.62L251.26-32.64L256.26-32.64L255.68-29.76L250.75-29.76L247.49-12.48L247.49-12.48Q246.66-8.51 246.66-7.17L246.66-7.17L246.66-7.17Q246.66-4.10 249.34-3.46L249.34-3.46L249.34-3.46Q248.70-1.28 246.40 0L246.40 0L246.40 0Q244.10 1.28 240.83 1.28L240.83 1.28L240.83 1.28Q237.57 1.28 235.71-0.77L235.71-0.77L235.71-0.77Q233.86-2.82 233.86-6.40ZM281.60-10.82L281.60-10.82L281.60-10.82Q283.20-9.73 283.20-7.33L283.20-7.33L283.20-7.33Q283.20-4.93 281.98-3.39L281.98-3.39L281.98-3.39Q280.77-1.86 278.78-0.83L278.78-0.83L278.78-0.83Q274.69 1.28 270.27 1.28L270.27 1.28L270.27 1.28Q265.86 1.28 263.26 0.32L263.26 0.32L263.26 0.32Q260.67-0.64 258.94-2.43L258.94-2.43L258.94-2.43Q255.55-5.82 255.55-12.03L255.55-12.03L255.55-12.03Q255.55-21.70 260.80-27.58L260.80-27.58L260.80-27.58Q266.43-33.92 276.22-33.92L276.22-33.92L276.22-33.92Q282.30-33.92 285.31-31.36L285.31-31.36L285.31-31.36Q287.55-29.44 287.55-26.30L287.55-26.30L287.55-26.30Q287.55-15.04 268.10-15.04L268.10-15.04L268.10-15.04Q267.84-13.38 267.84-11.97L267.84-11.97L267.84-11.97Q267.84-9.02 269.15-7.90L269.15-7.90L269.15-7.90Q270.46-6.78 272.90-6.78L272.90-6.78L272.90-6.78Q275.33-6.78 277.92-7.90L277.92-7.90L277.92-7.90Q280.51-9.02 281.60-10.82ZM268.54-17.79L268.54-17.79L268.54-17.79Q273.09-17.79 275.71-20.61L275.71-20.61L275.71-20.61Q278.34-23.30 278.34-27.58L278.34-27.58L278.34-27.58Q278.34-29.06 277.79-29.86L277.79-29.86L277.79-29.86Q277.25-30.66 276.16-30.66L276.16-30.66L276.16-30.66Q275.07-30.66 274.14-30.24L274.14-30.24L274.14-30.24Q273.22-29.82 272.26-28.42L272.26-28.42L272.26-28.42Q269.89-25.22 268.54-17.79ZM309.76-17.98L309.76-17.98L309.76-17.98Q312.06-22.08 312.06-26.24L312.06-26.24L312.06-26.24Q312.06-28.99 310.08-28.99L310.08-28.99L310.08-28.99Q308.54-28.99 306.94-26.37L306.94-26.37L306.94-26.37Q305.28-23.74 304.77-20.35L304.77-20.35L301.44 0L288.19 1.28L294.72-32.64L305.28-33.92L304.13-27.46L304.13-27.46Q307.26-33.92 314.30-33.92L314.30-33.92L314.30-33.92Q318.02-33.92 320.03-32L320.03-32L320.03-32Q322.05-30.08 322.05-26.14L322.05-26.14L322.05-26.14Q322.05-22.21 319.46-19.71L319.46-19.71L319.46-19.71Q316.86-17.22 312.45-17.22L312.45-17.22L312.45-17.22Q310.53-17.22 309.76-17.98ZM329.66 0L322.62 0L330.30-42.24L344.06-42.24L354.05-13.18L359.36-42.24L366.46-42.18L358.66 0L344 0L334.78-27.97L329.66 0ZM381.18 0L367.49 0L375.30-42.05L375.30-42.05Q381.63-42.75 390.88-42.75L390.88-42.75L390.88-42.75Q400.13-42.75 404.42-40.06L404.42-40.06L404.42-40.06Q408.70-37.38 408.70-31.97L408.70-31.97L408.70-31.97Q408.70-26.56 405.92-23.17L405.92-23.17L405.92-23.17Q403.14-19.78 398.34-18.69L398.34-18.69L398.34-18.69Q399.42-13.38 401.92-9.09L401.92-9.09L401.92-9.09Q404.22-5.06 406.91-3.78L406.91-3.78L406.91-3.78Q405.95-1.09 404 0.10L404 0.10L404 0.10Q402.05 1.28 399.26 1.28L399.26 1.28L399.26 1.28Q396.48 1.28 394.30-0.35L394.30-0.35L394.30-0.35Q392.13-1.98 390.40-4.99L390.40-4.99L390.40-4.99Q386.75-11.52 386.37-21.82L386.37-21.82L386.82-21.82L386.82-21.82Q391.55-21.95 393.92-24.42L393.92-24.42L393.92-24.42Q396.29-26.88 396.29-32.06L396.29-32.06L396.29-32.06Q396.29-38.53 390.85-38.78L390.85-38.78L389.44-38.78L389.44-38.78Q388.86-38.78 388.54-38.72L388.54-38.72L381.18 0Z"></path></g></g><style>text {
  font-size: 64px;
  font-family: Arial Black;
  dominant-baseline: central;
  text-anchor: middle;
}</style></svg>