<svg width="985.32001953125px" height="339.32000732421875px" xmlns="http://www.w3.org/2000/svg" viewBox="-242.66000976562498 -94.66000366210938 985.32001953125 339.32000732421875" style="background: rgba(0, 0, 0, 0) none repeat scroll 0% 0%;" preserveAspectRatio="xMidYMid"><defs><filter id="editing-raise" x="-100%" y="-100%" width="300%" height="300%"><feFlood flood-color="#ccc" result="flood-surface"></feFlood><feFlood flood-color="#777" result="flood-extrude"></feFlood><feMorphology operator="erode" in="SourceAlpha" radius="1" result="erode"></feMorphology><feConvolveMatrix in="erode" result="shadow" order="11,8" divisor="1" kernelMatrix="0 0 0 1 1 1 1 1 0 0 0 0 0 1 0 0 0 0 0 1 0 0 0 0 1 0 0 0 0 0 1 0 0 0 0 1 0 0 0 0 0 1 0 0 0 0 1 0 0 0 0 0 1 0 0 0 0 0 1 0 0 0 1 0 0 0 0 0 0 1 1 0 1 1 0 0 0 0 0 0 0 0 1 0 0 0 0 0"></feConvolveMatrix><feOffset dx="0" dy="4" in="shadow" result="offset"></feOffset><feGaussianBlur in="offset" stdDeviation="0.2" result="blur"></feGaussianBlur><feComposite operator="in" in="flood-extrude" in2="blur" result="extrude"></feComposite><feMorphology operator="erode" in="SourceAlpha" radius="1" result="erode2"></feMorphology><feConvolveMatrix in="erode2" result="out" order="4,4" divisor="1" kernelMatrix="0 1 1 0 1 0 0 1 1 0 0 1 0 1 1 0 "></feConvolveMatrix><feComposite operator="in" in="flood-surface" in2="out" result="text"></feComposite><feMerge><feMergeNode in="extrude"></feMergeNode><feMergeNode in="text"></feMergeNode></feMerge></filter></defs><g filter="url(#editing-raise)"><g transform="translate(-101.29998779296875, 150)"><path d="M24 0L2 0L26-132L69-132L100.20-41.20L116.80-132L139-131.80L114.60 0L68.80 0L40-87.40L24 0ZM152.70-6L152.70-6L152.70-6Q148-11.20 145.90-19.40L145.90-19.40L145.90-19.40Q143.80-27.60 143.80-41L143.80-41L143.80-41Q143.80-54.40 148.40-66.60L148.40-66.60L148.40-66.60Q153-78.80 161.40-87.60L161.40-87.60L161.40-87.60Q178.60-106 207-106L207-106L207-106Q217.20-106 224.60-102.60L224.60-102.60L258.80-106L244-28L244-28Q243.40-25.60 243.40-21.20L243.40-21.20L243.40-21.20Q243.40-16.80 246.10-14L246.10-14L246.10-14Q248.80-11.20 252.80-10.80L252.80-10.80L252.80-10.80Q250.80-4 243.50 0L243.50 0L243.50 0Q236.20 4 228 4L228 4L228 4Q219.80 4 214.30 0.90L214.30 0.90L214.30 0.90Q208.80-2.20 207.20-7.40L207.20-7.40L207.20-7.40Q204-2.40 197.20 0.80L197.20 0.80L197.20 0.80Q190.40 4 181.30 4L181.30 4L181.30 4Q172.20 4 164.80 1.60L164.80 1.60L164.80 1.60Q157.40-0.80 152.70-6ZM194.90-87.20L194.90-87.20L194.90-87.20Q192.60-83.60 190.60-77.50L190.60-77.50L190.60-77.50Q188.60-71.40 185.30-55.10L185.30-55.10L185.30-55.10Q182-38.80 182-27.20L182-27.20L182-27.20Q182-15.60 183.80-12.20L183.80-12.20L183.80-12.20Q185.60-8.80 188.80-8.80L188.80-8.80L188.80-8.80Q195.20-8.80 199.90-14.90L199.90-14.90L199.90-14.90Q204.60-21 206.40-31.80L206.40-31.80L217-90.40L217-90.40Q212.80-94 207.90-94L207.90-94L207.90-94Q203-94 200.10-92.40L200.10-92.40L200.10-92.40Q197.20-90.80 194.90-87.20ZM317.60-11L317.60-11L317.60-11Q311.40 4 291.60 4L291.60 4L291.60 4Q281.40 4 275-3L275-3L275-3Q269.60-9.20 269.60-15.40L269.60-15.40L269.60-15.40Q269.60-31.60 277-63.20L277-63.20L284.40-102L325-106L312.80-42.80L312.80-42.80Q309.40-28 309.40-22.80L309.40-22.80L309.40-22.80Q309.40-11.40 317.60-11ZM288-129.80L288-129.80L288-129.80Q288-137.60 294.50-141.80L294.50-141.80L294.50-141.80Q301-146 310.40-146L310.40-146L310.40-146Q319.80-146 325.50-141.80L325.50-141.80L325.50-141.80Q331.20-137.60 331.20-129.80L331.20-129.80L331.20-129.80Q331.20-122 324.90-118L324.90-118L324.90-118Q318.60-114 309.20-114L309.20-114L309.20-114Q299.80-114 293.90-118L293.90-118L293.90-118Q288-122 288-129.80ZM332-9.60L332-9.60L356.80-140L397.40-144L391.20-113.40L391.20-113.40Q389-104 386.20-97.40L386.20-97.40L386.20-97.40Q390.60-103 400.20-105.20L400.20-105.20L400.20-105.20Q403-106 406.40-106L406.40-106L406.40-106Q425-106 435.20-94.70L435.20-94.70L435.20-94.70Q445.40-83.40 445.40-61.60L445.40-61.60L445.40-61.60Q445.40-33.20 429.20-15.40L429.20-15.40L429.20-15.40Q411.80 4 380.20 4L380.20 4L380.20 4Q358.40 4 342-3.20L342-3.20L342-3.20Q336.20-5.80 332-9.60ZM382.80-70L372.20-11.40L372.20-11.40Q376.40-7.80 381.60-7.80L381.60-7.80L381.60-7.80Q386.80-7.80 389.80-9.80L389.80-9.80L389.80-9.80Q392.80-11.80 395-15.80L395-15.80L395-15.80Q401-26.60 405.80-59.60L405.80-59.60L405.80-59.60Q407.20-69 407.20-78.40L407.20-78.40L407.20-78.40Q407.20-87.80 405.10-90.80L405.10-90.80L405.10-90.80Q403-93.80 399-93.80L399-93.80L399-93.80Q386.80-93.80 382.80-70L382.80-70ZM521.60-8.40L521.60-8.40L521.60-8.40Q512 4 488.20 4L488.20 4L488.20 4Q475.80 4 466.80-3.50L466.80-3.50L466.80-3.50Q457.80-11 457.80-21.80L457.80-21.80L457.80-21.80Q457.80-27.80 458.40-30.80L458.40-30.80L471.80-102L512.40-106L497.80-28.80L497.80-28.80Q497-24.40 497-21.80L497-21.80L497-21.80Q497-10.20 504-10.20L504-10.20L504-10.20Q511.80-10.20 517.40-20.80L517.40-20.80L517.40-20.80Q519.20-24.20 520-28.60L520-28.60L534.20-102L573.60-106L558.80-28L558.80-28Q558.20-25 558.20-21.80L558.20-21.80L558.20-21.80Q558.20-18.60 560-15.10L560-15.10L560-15.10Q561.80-11.60 567.60-10.80L567.60-10.80L567.60-10.80Q566.40-6 562.20-2.80L562.20-2.80L562.20-2.80Q553.40 4 543.90 4L543.90 4L543.90 4Q534.40 4 528.80 0.60L528.80 0.60L528.80 0.60Q523.20-2.80 521.60-8.40ZM648.60-8.40L648.60-8.40L648.60-8.40Q639 4 615.20 4L615.20 4L615.20 4Q602.80 4 593.80-3.50L593.80-3.50L593.80-3.50Q584.80-11 584.80-21.80L584.80-21.80L584.80-21.80Q584.80-27.80 585.40-30.80L585.40-30.80L598.80-102L639.40-106L624.80-28.80L624.80-28.80Q624-24.40 624-21.80L624-21.80L624-21.80Q624-10.20 631-10.20L631-10.20L631-10.20Q638.80-10.20 644.40-20.80L644.40-20.80L644.40-20.80Q646.20-24.20 647-28.60L647-28.60L661.20-102L700.60-106L685.80-28L685.80-28Q685.20-25 685.20-21.80L685.20-21.80L685.20-21.80Q685.20-18.60 687-15.10L687-15.10L687-15.10Q688.80-11.60 694.60-10.80L694.60-10.80L694.60-10.80Q693.40-6 689.20-2.80L689.20-2.80L689.20-2.80Q680.40 4 670.90 4L670.90 4L670.90 4Q661.40 4 655.80 0.60L655.80 0.60L655.80 0.60Q650.20-2.80 648.60-8.40Z"></path></g></g><style>text {
  font-size: 64px;
  font-family: Arial Black;
  dominant-baseline: central;
  text-anchor: middle;
}</style></svg>