<svg width="330.5599853515625px" height="124.439990234375px" xmlns="http://www.w3.org/2000/svg" viewBox="84.72000732421876 12.780004882812499 330.5599853515625 124.439990234375" style="background: rgba(0, 0, 0, 0) none repeat scroll 0% 0%;" preserveAspectRatio="xMidYMid"><defs><filter id="editing-raise" x="-100%" y="-100%" width="300%" height="300%"><feFlood flood-color="#ccc" result="flood-surface"></feFlood><feFlood flood-color="#777" result="flood-extrude"></feFlood><feMorphology operator="erode" in="SourceAlpha" radius="1" result="erode"></feMorphology><feConvolveMatrix in="erode" result="shadow" order="11,8" divisor="1" kernelMatrix="0 0 0 1 1 1 1 1 0 0 0 0 0 1 0 0 0 0 0 1 0 0 0 0 1 0 0 0 0 0 1 0 0 0 0 1 0 0 0 0 0 1 0 0 0 0 1 0 0 0 0 0 1 0 0 0 0 0 1 0 0 0 1 0 0 0 0 0 0 1 1 0 1 1 0 0 0 0 0 0 0 0 1 0 0 0 0 0"></feConvolveMatrix><feOffset dx="0" dy="4" in="shadow" result="offset"></feOffset><feGaussianBlur in="offset" stdDeviation="0.2" result="blur"></feGaussianBlur><feComposite operator="in" in="flood-extrude" in2="blur" result="extrude"></feComposite><feMorphology operator="erode" in="SourceAlpha" radius="1" result="erode2"></feMorphology><feConvolveMatrix in="erode2" result="out" order="4,4" divisor="1" kernelMatrix="0 1 1 0 1 0 0 1 1 0 0 1 0 1 1 0 "></feConvolveMatrix><feComposite operator="in" in="flood-surface" in2="out" result="text"></feComposite><feMerge><feMergeNode in="extrude"></feMergeNode><feMergeNode in="text"></feMergeNode></feMerge></filter></defs><g filter="url(#editing-raise)"><g transform="translate(137.58499085903168, 99)"><path d="M7.68 0L0.64 0L8.32-42.24L22.08-42.24L32.06-13.18L37.38-42.24L44.48-42.18L36.67 0L22.02 0L12.80-27.97L7.68 0ZM48.86-1.92L48.86-1.92L48.86-1.92Q47.36-3.58 46.69-6.21L46.69-6.21L46.69-6.21Q46.02-8.83 46.02-13.12L46.02-13.12L46.02-13.12Q46.02-17.41 47.49-21.31L47.49-21.31L47.49-21.31Q48.96-25.22 51.65-28.03L51.65-28.03L51.65-28.03Q57.15-33.92 66.24-33.92L66.24-33.92L66.24-33.92Q69.50-33.92 71.87-32.83L71.87-32.83L82.82-33.92L78.08-8.96L78.08-8.96Q77.89-8.19 77.89-6.78L77.89-6.78L77.89-6.78Q77.89-5.38 78.75-4.48L78.75-4.48L78.75-4.48Q79.62-3.58 80.90-3.46L80.90-3.46L80.90-3.46Q80.26-1.28 77.92 0L77.92 0L77.92 0Q75.58 1.28 72.96 1.28L72.96 1.28L72.96 1.28Q70.34 1.28 68.58 0.29L68.58 0.29L68.58 0.29Q66.82-0.70 66.30-2.37L66.30-2.37L66.30-2.37Q65.28-0.77 63.10 0.26L63.10 0.26L63.10 0.26Q60.93 1.28 58.02 1.28L58.02 1.28L58.02 1.28Q55.10 1.28 52.74 0.51L52.74 0.51L52.74 0.51Q50.37-0.26 48.86-1.92ZM62.37-27.90L62.37-27.90L62.37-27.90Q61.63-26.75 60.99-24.80L60.99-24.80L60.99-24.80Q60.35-22.85 59.30-17.63L59.30-17.63L59.30-17.63Q58.24-12.42 58.24-8.70L58.24-8.70L58.24-8.70Q58.24-4.99 58.82-3.90L58.82-3.90L58.82-3.90Q59.39-2.82 60.42-2.82L60.42-2.82L60.42-2.82Q62.46-2.82 63.97-4.77L63.97-4.77L63.97-4.77Q65.47-6.72 66.05-10.18L66.05-10.18L69.44-28.93L69.44-28.93Q68.10-30.08 66.53-30.08L66.53-30.08L66.53-30.08Q64.96-30.08 64.03-29.57L64.03-29.57L64.03-29.57Q63.10-29.06 62.37-27.90ZM101.63-3.52L101.63-3.52L101.63-3.52Q99.65 1.28 93.31 1.28L93.31 1.28L93.31 1.28Q90.05 1.28 88-0.96L88-0.96L88-0.96Q86.27-2.94 86.27-4.93L86.27-4.93L86.27-4.93Q86.27-10.11 88.64-20.22L88.64-20.22L91.01-32.64L104-33.92L100.10-13.70L100.10-13.70Q99.01-8.96 99.01-7.30L99.01-7.30L99.01-7.30Q99.01-3.65 101.63-3.52ZM92.16-41.54L92.16-41.54L92.16-41.54Q92.16-44.03 94.24-45.38L94.24-45.38L94.24-45.38Q96.32-46.72 99.33-46.72L99.33-46.72L99.33-46.72Q102.34-46.72 104.16-45.38L104.16-45.38L104.16-45.38Q105.98-44.03 105.98-41.54L105.98-41.54L105.98-41.54Q105.98-39.04 103.97-37.76L103.97-37.76L103.97-37.76Q101.95-36.48 98.94-36.48L98.94-36.48L98.94-36.48Q95.94-36.48 94.05-37.76L94.05-37.76L94.05-37.76Q92.16-39.04 92.16-41.54ZM106.24-3.07L106.24-3.07L114.18-44.80L127.17-46.08L125.18-36.29L125.18-36.29Q124.48-33.28 123.58-31.17L123.58-31.17L123.58-31.17Q124.99-32.96 128.06-33.66L128.06-33.66L128.06-33.66Q128.96-33.92 130.05-33.92L130.05-33.92L130.05-33.92Q136-33.92 139.26-30.30L139.26-30.30L139.26-30.30Q142.53-26.69 142.53-19.71L142.53-19.71L142.53-19.71Q142.53-10.62 137.34-4.93L137.34-4.93L137.34-4.93Q131.78 1.28 121.66 1.28L121.66 1.28L121.66 1.28Q114.69 1.28 109.44-1.02L109.44-1.02L109.44-1.02Q107.58-1.86 106.24-3.07ZM122.50-22.40L119.10-3.65L119.10-3.65Q120.45-2.50 122.11-2.50L122.11-2.50L122.11-2.50Q123.78-2.50 124.74-3.14L124.74-3.14L124.74-3.14Q125.70-3.78 126.40-5.06L126.40-5.06L126.40-5.06Q128.32-8.51 129.86-19.07L129.86-19.07L129.86-19.07Q130.30-22.08 130.30-25.09L130.30-25.09L130.30-25.09Q130.30-28.10 129.63-29.06L129.63-29.06L129.63-29.06Q128.96-30.02 127.68-30.02L127.68-30.02L127.68-30.02Q123.78-30.02 122.50-22.40L122.50-22.40ZM166.91-2.69L166.91-2.69L166.91-2.69Q163.84 1.28 156.22 1.28L156.22 1.28L156.22 1.28Q152.26 1.28 149.38-1.12L149.38-1.12L149.38-1.12Q146.50-3.52 146.50-6.98L146.50-6.98L146.50-6.98Q146.50-8.90 146.69-9.86L146.69-9.86L150.98-32.64L163.97-33.92L159.30-9.22L159.30-9.22Q159.04-7.81 159.04-6.98L159.04-6.98L159.04-6.98Q159.04-3.26 161.28-3.26L161.28-3.26L161.28-3.26Q163.78-3.26 165.57-6.66L165.57-6.66L165.57-6.66Q166.14-7.74 166.40-9.15L166.40-9.15L170.94-32.64L183.55-33.92L178.82-8.96L178.82-8.96Q178.62-8 178.62-6.98L178.62-6.98L178.62-6.98Q178.62-5.95 179.20-4.83L179.20-4.83L179.20-4.83Q179.78-3.71 181.63-3.46L181.63-3.46L181.63-3.46Q181.25-1.92 179.90-0.90L179.90-0.90L179.90-0.90Q177.09 1.28 174.05 1.28L174.05 1.28L174.05 1.28Q171.01 1.28 169.22 0.19L169.22 0.19L169.22 0.19Q167.42-0.90 166.91-2.69ZM207.55-2.69L207.55-2.69L207.55-2.69Q204.48 1.28 196.86 1.28L196.86 1.28L196.86 1.28Q192.90 1.28 190.02-1.12L190.02-1.12L190.02-1.12Q187.14-3.52 187.14-6.98L187.14-6.98L187.14-6.98Q187.14-8.90 187.33-9.86L187.33-9.86L191.62-32.64L204.61-33.92L199.94-9.22L199.94-9.22Q199.68-7.81 199.68-6.98L199.68-6.98L199.68-6.98Q199.68-3.26 201.92-3.26L201.92-3.26L201.92-3.26Q204.42-3.26 206.21-6.66L206.21-6.66L206.21-6.66Q206.78-7.74 207.04-9.15L207.04-9.15L211.58-32.64L224.19-33.92L219.46-8.96L219.46-8.96Q219.26-8 219.26-6.98L219.26-6.98L219.26-6.98Q219.26-5.95 219.84-4.83L219.84-4.83L219.84-4.83Q220.42-3.71 222.27-3.46L222.27-3.46L222.27-3.46Q221.89-1.92 220.54-0.90L220.54-0.90L220.54-0.90Q217.73 1.28 214.69 1.28L214.69 1.28L214.69 1.28Q211.65 1.28 209.86 0.19L209.86 0.19L209.86 0.19Q208.06-0.90 207.55-2.69Z"></path></g></g><style>text {
  font-size: 64px;
  font-family: Arial Black;
  dominant-baseline: central;
  text-anchor: middle;
}</style></svg>